<svg width="512" height="512" viewBox="0 0 512 512" fill="none" xmlns="http://www.w3.org/2000/svg">
    <path d="M304.457 431.086C304.165 430.212 306.065 422.05 307.326 418.758C308.74 415.066 310.411 412.848 316.352 406.782L321.563 401.462L324.007 398.029C330.931 388.303 336.098 375.407 341.303 354.866C343.371 346.703 343.854 347.428 337.262 348.806L331.832 349.94L321.209 350.008C305.795 350.106 303.579 350.44 296.479 353.734C291.748 355.93 287.5 357.467 283.078 358.584L279.301 359.538L274.838 359.56L270.375 359.583L267.971 358.772C262.123 356.799 257.267 353.48 247.15 344.541C240.254 338.447 239.646 337.775 239.646 336.239V335.128L241.3 332.594C242.21 331.201 245.27 326.817 248.099 322.853C259.612 306.723 260.131 305.816 261.482 299.468C261.959 297.227 262.524 294.702 262.737 293.858L263.125 292.323L267.13 287.851C289.563 262.801 329.507 228.4 349.415 216.983C353.136 214.849 353.005 214.995 353.764 212.172C354.092 210.956 354.919 208.948 355.603 207.709L356.848 205.457L359.332 202.99L361.816 200.523L365.02 199.001C366.783 198.164 369.152 197.266 370.285 197.005L372.345 196.532L377.839 196.557L383.332 196.581L385.328 197.144C388.586 198.063 390.408 199.143 392.856 201.608L395.17 203.939L396.576 206.843L397.982 209.747H402.602C451.514 209.747 495.041 252.194 507.946 312.477C514.779 344.395 512.853 390.483 503.08 428.922L502.469 431.325L470.271 431.412L438.074 431.5L437.894 431.033C436.729 427.996 445.966 416.936 454.79 410.802C456.181 409.836 457.203 408.935 457.062 408.8C456.921 408.666 455.569 407.91 454.059 407.12C446.06 402.939 434.021 392.869 430.928 387.774L430.453 386.99L432.219 381.697C435.644 371.429 438.094 359.496 438.094 353.082V351.369L437.624 351.872C437.365 352.148 435.72 354.768 433.969 357.695C422.419 376.989 411.216 390.255 394.025 404.996C388.125 410.055 385.557 412.206 374.061 421.72C370.662 424.533 366.666 427.884 365.179 429.166L362.477 431.497H333.535H304.593L304.457 431.086Z" fill="#E60076"/>
    <path d="M25.1885 430.989C24.9701 430.42 27.9176 424.961 32.013 418.35C36.1583 411.659 38.3782 406.426 39.7327 400.154L40.3399 397.342V391.85V386.357L39.7207 383.44C37.9961 375.317 35.5512 369.952 27.2837 356.15C9.91274 327.151 2.71023 309.01 0.503242 288.699L0 284.064V276.856L7.02785e-05 269.647L0.518865 264.67C1.2897 257.276 2.45246 250.625 3.98416 244.846C5.29585 239.898 5.62529 238.796 6.93464 234.978C18.8462 200.24 46.5559 168.212 72.2704 159.46C75.3315 158.418 75.5193 158.25 75.5269 156.541C75.5835 143.868 81.9491 136.922 105.574 123.76C121.478 114.899 126.914 111.03 134.695 103.033C136.738 100.934 138.574 99.2162 138.775 99.2162H139.14L138.949 105.481L138.757 111.745L138.055 114.41C135.648 123.538 128.526 134.481 118.457 144.527L114.501 148.475L115.702 148.564C129.824 149.618 137.579 154.306 152.716 170.941C169.673 189.575 172.437 192.456 188.806 208.551C193.796 213.457 198.315 218.158 198.849 218.997L199.819 220.523V222.34V224.156L198.755 227.507C196.557 234.424 191.743 243.126 187.458 247.927L185.704 249.891L183.074 251.188L180.445 252.484L169.897 252.391L159.35 252.297L155.637 252.786C149.085 253.65 142.506 255.606 138.191 257.975C131.783 261.492 132.165 260.621 134.993 265.271C135.366 265.884 135.589 266.386 135.487 266.386C135.386 266.386 134.66 265.305 133.875 263.983C132.524 261.71 131.811 261.136 131.32 261.929C131.202 262.121 129.995 263.031 128.639 263.952C107.792 278.106 87.5146 307.217 76.7112 338.501C68.9547 360.962 62.135 396.211 59.9147 425.318C59.8065 426.734 59.6397 428.633 59.5429 429.538L59.3676 431.183L65.7008 431.082C69.1842 431.027 71.9622 431.098 71.8744 431.239C71.7867 431.381 61.2902 431.497 48.5491 431.497H25.3835L25.1885 430.989ZM127.528 431.057C127.436 430.815 127.599 430.004 127.887 429.255C128.376 427.995 128.359 428.558 127.852 430.378L127.638 431.148L147.334 431.239L167.029 431.331L147.362 431.414L127.695 431.497L127.528 431.057ZM166.858 359.071L166.687 287.161L165.657 286.94L164.627 286.72L165.529 286.68C166.026 286.657 166.605 286.848 166.818 287.104L167.204 287.569L167.117 359.276L167.03 430.982L166.858 359.071ZM82.0909 407.745C87.322 397.972 96.9613 385.365 106.907 375.287L111.057 371.082H111.81H112.563L115.316 374.086C122.106 381.493 132.195 396.835 132.18 399.729C132.179 399.927 131.132 398.003 129.855 395.454C126.195 388.155 121.668 381.58 115.735 374.944L112.589 371.425H111.791H110.992L106.909 375.63C97.2575 385.571 90.2024 394.646 83.9594 405.151C82.8655 406.992 81.9069 408.498 81.829 408.498C81.7513 408.498 81.872 408.159 82.0909 407.745ZM154.893 161.199C138.151 149.148 135.967 146.554 141.4 145.168C159.443 140.564 173.755 130.041 181.338 115.801C182.124 114.326 182.821 113.051 182.887 112.97C183.464 112.254 184.366 116.174 185.075 122.472L185.471 125.991L185.063 129.509C184.688 132.749 184.334 134.445 183.361 137.662C180.91 145.763 171.903 156.619 162.609 162.674C159.282 164.841 160.195 165.016 154.893 161.199Z" fill="#00BC7D"/>
    <path d="M59.5436 429.524C59.6397 428.623 59.8066 426.727 59.9147 425.311C61.4663 404.97 65.7872 378.534 70.9392 357.86C81.5484 315.287 103.086 281.244 131.748 261.745L132.253 261.402L132.647 262.044C132.863 262.397 134.112 264.328 135.421 266.335L137.802 269.984L141.447 273.589L145.091 277.195L148.507 279.476C153.895 283.073 158.477 285.156 164.194 286.607L166.687 287.24L166.774 359.193L166.861 431.147H147.29H127.719V430.823C127.719 428.881 131.707 419.153 133.782 416.033C136.077 412.582 136.082 410.913 133.817 404.2C130.27 393.684 124.213 383.829 115.307 374.079L112.564 371.075H111.811H111.058L106.908 375.28C90.8927 391.508 77.888 411.804 72.4303 429.087L71.8337 430.975L65.6019 431.069L59.37 431.162L59.5436 429.524ZM287.639 430.557C286.727 429.531 268.467 401.854 265.778 397.421L264.996 396.134H264.362C264.013 396.134 262.365 397.035 260.699 398.137C257.725 400.104 247.54 406.595 245.098 408.079C244.415 408.495 243.642 408.832 243.381 408.828L242.907 408.822L239.645 402.41C234.692 392.675 223.81 372.162 213.46 353.054C208.347 343.614 202.326 332.492 200.08 328.338C197.835 324.185 195.77 320.555 195.492 320.272L194.988 319.757L194.658 320.272L194.329 320.787L194.343 335.032C194.35 342.867 194.35 349.471 194.341 349.707L194.327 350.136H187.974H181.62L181.708 316.753L181.796 283.371L186.639 283.276L191.482 283.181L191.831 283.619C192.023 283.86 193.417 286.374 194.929 289.206C197.982 294.924 199.664 298.036 207.55 312.548C210.525 318.023 214.385 325.129 216.127 328.338C218.665 333.012 232.861 358.995 241.352 374.508C242.231 376.112 244.331 379.953 246.019 383.043C249.729 389.831 249.024 389.537 254.142 386.425C264.027 380.414 270.259 376.858 270.647 377.007C271.052 377.163 271.903 378.449 280.346 391.671C282.576 395.164 286.786 401.713 289.7 406.226L294.999 414.43L294.97 422.702L294.942 430.975L291.566 431.072L288.19 431.169L287.639 430.557Z" fill="#006045"/>
    <path d="M328.106 191.79L328.015 180.366L321.835 180.195L315.655 180.023L315.568 145.611L315.48 111.198H321.421H327.363L327.775 110.787L328.187 110.375V95.5113C328.187 87.3364 328.303 80.6461 328.444 80.6439C328.585 80.6417 330.592 80.6086 332.902 80.57L337.103 80.5L337.448 80.8448L337.793 81.1897L337.882 96.1083L337.972 111.027L343.794 111.121L349.616 111.216L349.892 111.636C350.044 111.867 350.151 127.117 350.13 145.525L350.087 178.993L349.766 179.594L349.445 180.195H343.625H337.805L337.715 191.608L337.624 203.022L332.908 203.117L328.192 203.213L328.106 191.79Z" fill="#E60076"/>
    <path d="M274.775 237.565C274.685 237.323 274.572 231.95 274.524 225.626L274.438 214.126L268.616 214.032L262.795 213.938L262.546 213.535C262.206 212.985 262.184 139.401 262.525 138.874L262.795 138.454L268.617 138.359L274.439 138.265L274.611 127.452L274.782 116.639H279.074H283.366L283.549 127.452C283.65 133.399 283.766 138.3 283.807 138.342C283.849 138.385 286.468 138.462 289.631 138.514L295.382 138.608V176.196V213.783L289.838 213.877L284.294 213.972L283.92 214.422L283.546 214.872L283.455 226.342L283.365 237.812L279.152 237.908L274.94 238.005L274.775 237.565Z" fill="#00BC7D"/>
    <path d="M228.71 280.148L228.285 279.878L228.195 267.195L228.104 254.512L221.924 254.34L215.744 254.168L215.657 217.133L215.569 180.097L215.949 179.639L216.33 179.181L222.217 179.087L228.104 178.993L228.275 169.554L228.447 160.114L232.691 160.017C235.024 159.964 237.11 160.067 237.326 160.245L237.717 160.57L237.635 169.335C237.593 174.156 237.642 178.34 237.757 178.633L237.962 179.165L243.504 179.17C246.552 179.173 249.24 179.299 249.477 179.449L249.908 179.722L249.82 216.945L249.732 254.169L243.911 254.263L238.089 254.357L237.817 254.778C237.668 255.009 237.553 260.723 237.562 267.476C237.569 274.23 237.483 279.906 237.369 280.092L237.161 280.428L233.147 280.423C230.939 280.42 228.944 280.296 228.71 280.148Z" fill="#E60076"/>
</svg>
