<svg width="1920" height="1080" viewBox="0 0 1920 1080" fill="none" xmlns="http://www.w3.org/2000/svg">
    <g clip-path="url(#clip0_1002_2310)">
        <path opacity="0.9" d="M1920 0H0V1080H1920V0Z" fill="url(#paint0_linear_1002_2310)"/>
        <g opacity="0.12" filter="url(#filter0_f_1002_2310)">
            <path d="M60 780C60 779.448 60.4477 779 61 779C61.5523 779 62 779.448 62 780V810H60V780Z" fill="#10B981"/>
            <path d="M64 810H56C54.8954 810 54 810.895 54 812V878C54 879.105 54.8954 880 56 880H64C65.1046 880 66 879.105 66 878V812C66 810.895 65.1046 810 64 810Z" fill="#10B981"/>
            <path d="M60 880H62V900C62 900.552 61.5523 901 61 901C60.4477 901 60 900.552 60 900V880Z" fill="#10B981"/>
        </g>
        <g opacity="0.14" filter="url(#filter1_f_1002_2310)">
            <path d="M166 760C166 759.448 166.448 759 167 759C167.552 759 168 759.448 168 760V800H166V760Z" fill="#EC4899"/>
            <path d="M170 800H162C160.895 800 160 800.895 160 802V878C160 879.105 160.895 880 162 880H170C171.105 880 172 879.105 172 878V802C172 800.895 171.105 800 170 800Z" fill="#EC4899"/>
            <path d="M166 880H168V910C168 910.552 167.552 911 167 911C166.448 911 166 910.552 166 910V880Z" fill="#EC4899"/>
        </g>
        <g opacity="0.16" filter="url(#filter2_f_1002_2310)">
            <path d="M219 790C219 789.448 219.448 789 220 789C220.552 789 221 789.448 221 790V820H219V790Z" fill="#10B981"/>
            <path d="M223 820H215C213.895 820 213 820.895 213 822V878C213 879.105 213.895 880 215 880H223C224.105 880 225 879.105 225 878V822C225 820.895 224.105 820 223 820Z" fill="#10B981"/>
            <path d="M219 880H221V895C221 895.552 220.552 896 220 896C219.448 896 219 895.552 219 895V880Z" fill="#10B981"/>
        </g>
        <g opacity="0.13" filter="url(#filter3_f_1002_2310)">
            <path d="M325 714C325 713.448 325.448 713 326 713C326.552 713 327 713.448 327 714V754H325V714Z" fill="#EC4899"/>
            <path d="M329 754H321C319.895 754 319 754.895 319 756V827C319 828.105 319.895 829 321 829H329C330.105 829 331 828.105 331 827V756C331 754.895 330.105 754 329 754Z" fill="#EC4899"/>
            <path d="M325 829H327V849C327 849.552 326.552 850 326 850C325.448 850 325 849.552 325 849V829Z" fill="#EC4899"/>
        </g>
        <g opacity="0.17" filter="url(#filter4_f_1002_2310)">
            <path d="M378 694C378 693.448 378.448 693 379 693C379.552 693 380 693.448 380 694V744H378V694Z" fill="#10B981"/>
            <path d="M382 744H374C372.895 744 372 744.895 372 746V832C372 833.105 372.895 834 374 834H382C383.105 834 384 833.105 384 832V746C384 744.895 383.105 744 382 744Z" fill="#10B981"/>
            <path d="M378 834H380V854C380 854.552 379.552 855 379 855C378.448 855 378 854.552 378 854V834Z" fill="#10B981"/>
        </g>
        <g opacity="0.15" filter="url(#filter5_f_1002_2310)">
            <path d="M431 724C431 723.448 431.448 723 432 723C432.552 723 433 723.448 433 724V764H431V724Z" fill="#EC4899"/>
            <path d="M435 764H427C425.895 764 425 764.895 425 766V832C425 833.105 425.895 834 427 834H435C436.105 834 437 833.105 437 832V766C437 764.895 436.105 764 435 764Z" fill="#EC4899"/>
            <path d="M431 834H433V844C433 844.552 432.552 845 432 845C431.448 845 431 844.552 431 844V834Z" fill="#EC4899"/>
        </g>
        <g opacity="0.18" filter="url(#filter6_f_1002_2310)">
            <path d="M537 684C537 683.448 537.448 683 538 683C538.552 683 539 683.448 539 684V734H537V684Z" fill="#10B981"/>
            <path d="M541 734H533C531.895 734 531 734.895 531 736V832C531 833.105 531.895 834 533 834H541C542.105 834 543 833.105 543 832V736C543 734.895 542.105 734 541 734Z" fill="#10B981"/>
            <path d="M537 834H539V849C539 849.552 538.552 850 538 850C537.448 850 537 849.552 537 849V834Z" fill="#10B981"/>
        </g>
        <g opacity="0.14" filter="url(#filter7_f_1002_2310)">
            <path d="M590 719C590 718.448 590.448 718 591 718C591.552 718 592 718.448 592 719V759H590V719Z" fill="#EC4899"/>
            <path d="M594 759H586C584.895 759 584 759.895 584 761V822C584 823.105 584.895 824 586 824H594C595.105 824 596 823.105 596 822V761C596 759.895 595.105 759 594 759Z" fill="#EC4899"/>
            <path d="M590 824H592V839C592 839.552 591.552 840 591 840C590.448 840 590 839.552 590 839V824Z" fill="#EC4899"/>
        </g>
        <g opacity="0.19" filter="url(#filter8_f_1002_2310)">
            <path d="M643 664C643 663.448 643.448 663 644 663C644.552 663 645 663.448 645 664V724H643V664Z" fill="#10B981"/>
            <path d="M647 724H639C637.895 724 637 724.895 637 726V832C637 833.105 637.895 834 639 834H647C648.105 834 649 833.105 649 832V726C649 724.895 648.105 724 647 724Z" fill="#10B981"/>
            <path d="M643 834H645V854C645 854.552 644.552 855 644 855C643.448 855 643 854.552 643 854V834Z" fill="#10B981"/>
        </g>
        <g opacity="0.16" filter="url(#filter9_f_1002_2310)">
            <path d="M749 664C749 663.448 749.448 663 750 663C750.552 663 751 663.448 751 664V709H749V664Z" fill="#EC4899"/>
            <path d="M753 709H745C743.895 709 743 709.895 743 711V782C743 783.105 743.895 784 745 784H753C754.105 784 755 783.105 755 782V711C755 709.895 754.105 709 753 709Z" fill="#EC4899"/>
            <path d="M749 784H751V804C751 804.552 750.552 805 750 805C749.448 805 749 804.552 749 804V784Z" fill="#EC4899"/>
        </g>
        <g opacity="0.2" filter="url(#filter10_f_1002_2310)">
            <path d="M802 604C802 603.448 802.448 603 803 603C803.552 603 804 603.448 804 604V674H802V604Z" fill="#10B981"/>
            <path d="M806 674H798C796.895 674 796 674.895 796 676V792C796 793.105 796.895 794 798 794H806C807.105 794 808 793.105 808 792V676C808 674.895 807.105 674 806 674Z" fill="#10B981"/>
            <path d="M802 794H804V819C804 819.552 803.552 820 803 820C802.448 820 802 819.552 802 819V794Z" fill="#10B981"/>
        </g>
        <g opacity="0.15" filter="url(#filter11_f_1002_2310)">
            <path d="M855 674C855 673.448 855.448 673 856 673C856.552 673 857 673.448 857 674V719H855V674Z" fill="#EC4899"/>
            <path d="M859 719H851C849.895 719 849 719.895 849 721V787C849 788.105 849.895 789 851 789H859C860.105 789 861 788.105 861 787V721C861 719.895 860.105 719 859 719Z" fill="#EC4899"/>
            <path d="M855 789H857V809C857 809.552 856.552 810 856 810C855.448 810 855 809.552 855 809V789Z" fill="#EC4899"/>
        </g>
        <g opacity="0.21" filter="url(#filter12_f_1002_2310)">
            <path d="M961 584C961 583.448 961.448 583 962 583C962.552 583 963 583.448 963 584V664H961V584Z" fill="#10B981"/>
            <path d="M965 664H957C955.895 664 955 664.895 955 666V792C955 793.105 955.895 794 957 794H965C966.105 794 967 793.105 967 792V666C967 664.895 966.105 664 965 664Z" fill="#10B981"/>
            <path d="M961 794H963V824C963 824.552 962.552 825 962 825C961.448 825 961 824.552 961 824V794Z" fill="#10B981"/>
        </g>
        <g opacity="0.17" filter="url(#filter13_f_1002_2310)">
            <path d="M1014 718C1014 717.448 1014.45 717 1015 717C1015.55 717 1016 717.448 1016 718V768H1014V718Z" fill="#EC4899"/>
            <path d="M1018 768H1010C1008.9 768 1008 768.895 1008 770V851C1008 852.105 1008.9 853 1010 853H1018C1019.1 853 1020 852.105 1020 851V770C1020 768.895 1019.1 768 1018 768Z" fill="#EC4899"/>
            <path d="M1014 853H1016V878C1016 878.552 1015.55 879 1015 879C1014.45 879 1014 878.552 1014 878V853Z" fill="#EC4899"/>
        </g>
        <g opacity="0.18" filter="url(#filter14_f_1002_2310)">
            <path d="M1067 658C1067 657.448 1067.45 657 1068 657C1068.55 657 1069 657.448 1069 658V713H1067V658Z" fill="#10B981"/>
            <path d="M1071 713H1063C1061.9 713 1061 713.895 1061 715V806C1061 807.105 1061.9 808 1063 808H1071C1072.1 808 1073 807.105 1073 806V715C1073 713.895 1072.1 713 1071 713Z" fill="#10B981"/>
            <path d="M1067 808H1069V833C1069 833.552 1068.55 834 1068 834C1067.45 834 1067 833.552 1067 833V808Z" fill="#10B981"/>
        </g>
        <g opacity="0.16" filter="url(#filter15_f_1002_2310)">
            <path d="M1173 693C1173 692.448 1173.45 692 1174 692C1174.55 692 1175 692.448 1175 693V738H1173V693Z" fill="#EC4899"/>
            <path d="M1177 738H1169C1167.9 738 1167 738.895 1167 740V808C1167 809.105 1167.9 810 1169 810H1177C1178.1 810 1179 809.105 1179 808V740C1179 738.895 1178.1 738 1177 738Z" fill="#EC4899"/>
            <path d="M1173 810H1175V828C1175 828.552 1174.55 829 1174 829C1173.45 829 1173 828.552 1173 828V810Z" fill="#EC4899"/>
        </g>
        <g opacity="0.19" filter="url(#filter16_f_1002_2310)">
            <path d="M1226 638C1226 637.448 1226.45 637 1227 637C1227.55 637 1228 637.448 1228 638V703H1226V638Z" fill="#10B981"/>
            <path d="M1230 703H1222C1220.9 703 1220 703.895 1220 705V816C1220 817.105 1220.9 818 1222 818H1230C1231.1 818 1232 817.105 1232 816V705C1232 703.895 1231.1 703 1230 703Z" fill="#10B981"/>
            <path d="M1226 818H1228V843C1228 843.552 1227.55 844 1227 844C1226.45 844 1226 843.552 1226 843V818Z" fill="#10B981"/>
        </g>
        <g opacity="0.15" filter="url(#filter17_f_1002_2310)">
            <path d="M1279 698C1279 697.448 1279.45 697 1280 697C1280.55 697 1281 697.448 1281 698V743H1279V698Z" fill="#EC4899"/>
            <path d="M1283 743H1275C1273.9 743 1273 743.895 1273 745V809C1273 810.105 1273.9 811 1275 811H1283C1284.1 811 1285 810.105 1285 809V745C1285 743.895 1284.1 743 1283 743Z" fill="#EC4899"/>
            <path d="M1279 811H1281V831C1281 831.552 1280.55 832 1280 832C1279.45 832 1279 831.552 1279 831V811Z" fill="#EC4899"/>
        </g>
        <g opacity="0.2" filter="url(#filter18_f_1002_2310)">
            <path d="M1385 618C1385 617.448 1385.45 617 1386 617C1386.55 617 1387 617.448 1387 618V693H1385V618Z" fill="#10B981"/>
            <path d="M1389 693H1381C1379.9 693 1379 693.895 1379 695V816C1379 817.105 1379.9 818 1381 818H1389C1390.1 818 1391 817.105 1391 816V695C1391 693.895 1390.1 693 1389 693Z" fill="#10B981"/>
            <path d="M1385 818H1387V846C1387 846.552 1386.55 847 1386 847C1385.45 847 1385 846.552 1385 846V818Z" fill="#10B981"/>
        </g>
        <g opacity="0.14" filter="url(#filter19_f_1002_2310)">
            <path d="M1438 703C1438 702.448 1438.45 702 1439 702C1439.55 702 1440 702.448 1440 703V748H1438V703Z" fill="#EC4899"/>
            <path d="M1442 748H1434C1432.9 748 1432 748.895 1432 750V816C1432 817.105 1432.9 818 1434 818H1442C1443.1 818 1444 817.105 1444 816V750C1444 748.895 1443.1 748 1442 748Z" fill="#EC4899"/>
            <path d="M1438 818H1440V833C1440 833.552 1439.55 834 1439 834C1438.45 834 1438 833.552 1438 833V818Z" fill="#EC4899"/>
        </g>
        <g opacity="0.17" filter="url(#filter20_f_1002_2310)">
            <path d="M1491 673C1491 672.448 1491.45 672 1492 672C1492.55 672 1493 672.448 1493 673V728H1491V673Z" fill="#10B981"/>
            <path d="M1495 728H1487C1485.9 728 1485 728.895 1485 730V814C1485 815.105 1485.9 816 1487 816H1495C1496.1 816 1497 815.105 1497 814V730C1497 728.895 1496.1 728 1495 728Z" fill="#10B981"/>
            <path d="M1491 816H1493V836C1493 836.552 1492.55 837 1492 837C1491.45 837 1491 836.552 1491 836V816Z" fill="#10B981"/>
        </g>
        <g opacity="0.16" filter="url(#filter21_f_1002_2310)">
            <path d="M1597 688C1597 687.448 1597.45 687 1598 687C1598.55 687 1599 687.448 1599 688V738H1597V688Z" fill="#EC4899"/>
            <path d="M1601 738H1593C1591.9 738 1591 738.895 1591 740V814C1591 815.105 1591.9 816 1593 816H1601C1602.1 816 1603 815.105 1603 814V740C1603 738.895 1602.1 738 1601 738Z" fill="#EC4899"/>
            <path d="M1597 816H1599V830C1599 830.552 1598.55 831 1598 831C1597.45 831 1597 830.552 1597 830V816Z" fill="#EC4899"/>
        </g>
        <g opacity="0.18" filter="url(#filter22_f_1002_2310)">
            <path d="M1650 653C1650 652.448 1650.45 652 1651 652C1651.55 652 1652 652.448 1652 653V713H1650V653Z" fill="#10B981"/>
            <path d="M1654 713H1646C1644.9 713 1644 713.895 1644 715V816C1644 817.105 1644.9 818 1646 818H1654C1655.1 818 1656 817.105 1656 816V715C1656 713.895 1655.1 713 1654 713Z" fill="#10B981"/>
            <path d="M1650 818H1652V838C1652 838.552 1651.55 839 1651 839C1650.45 839 1650 838.552 1650 838V818Z" fill="#10B981"/>
        </g>
        <g opacity="0.15" filter="url(#filter23_f_1002_2310)">
            <path d="M1703 698C1703 697.448 1703.45 697 1704 697C1704.55 697 1705 697.448 1705 698V746H1703V698Z" fill="#EC4899"/>
            <path d="M1707 746H1699C1697.9 746 1697 746.895 1697 748V816C1697 817.105 1697.9 818 1699 818H1707C1708.1 818 1709 817.105 1709 816V748C1709 746.895 1708.1 746 1707 746Z" fill="#EC4899"/>
            <path d="M1703 818H1705V831C1705 831.552 1704.55 832 1704 832C1703.45 832 1703 831.552 1703 831V818Z" fill="#EC4899"/>
        </g>
        <g opacity="0.19" filter="url(#filter24_f_1002_2310)">
            <path d="M1809 633C1809 632.448 1809.45 632 1810 632C1810.55 632 1811 632.448 1811 633V698H1809V633Z" fill="#10B981"/>
            <path d="M1813 698H1805C1803.9 698 1803 698.895 1803 700V814C1803 815.105 1803.9 816 1805 816H1813C1814.1 816 1815 815.105 1815 814V700C1815 698.895 1814.1 698 1813 698Z" fill="#10B981"/>
            <path d="M1809 816H1811V840C1811 840.552 1810.55 841 1810 841C1809.45 841 1809 840.552 1809 840V816Z" fill="#10B981"/>
        </g>
        <g opacity="0.13" filter="url(#filter25_f_1002_2310)">
            <path d="M1862 708C1862 707.448 1862.45 707 1863 707C1863.55 707 1864 707.448 1864 708V750H1862V708Z" fill="#EC4899"/>
            <path d="M1866 750H1858C1856.9 750 1856 750.895 1856 752V813C1856 814.105 1856.9 815 1858 815H1866C1867.1 815 1868 814.105 1868 813V752C1868 750.895 1867.1 750 1866 750Z" fill="#EC4899"/>
            <path d="M1862 815H1864V828C1864 828.552 1863.55 829 1863 829C1862.45 829 1862 828.552 1862 828V815Z" fill="#EC4899"/>
        </g>
        <g opacity="0.1" filter="url(#filter26_f_1002_2310)">
            <path d="M113 800C113 799.448 113.448 799 114 799C114.552 799 115 799.448 115 800V825H113V800Z" fill="#10B981"/>
            <path d="M117 825H109C107.895 825 107 825.895 107 827V871C107 872.105 107.895 873 109 873H117C118.105 873 119 872.105 119 871V827C119 825.895 118.105 825 117 825Z" fill="#10B981"/>
            <path d="M113 873H115V888C115 888.552 114.552 889 114 889C113.448 889 113 888.552 113 888V873Z" fill="#10B981"/>
        </g>
        <g opacity="0.11" filter="url(#filter27_f_1002_2310)">
            <path d="M272 795C272 794.448 272.448 794 273 794C273.552 794 274 794.448 274 795V822H272V795Z" fill="#EC4899"/>
            <path d="M276 822H268C266.895 822 266 822.895 266 824V872C266 873.105 266.895 874 268 874H276C277.105 874 278 873.105 278 872V824C278 822.895 277.105 822 276 822Z" fill="#EC4899"/>
            <path d="M272 874H274V890C274 890.552 273.552 891 273 891C272.448 891 272 890.552 272 890V874Z" fill="#EC4899"/>
        </g>
        <g opacity="0.12" filter="url(#filter28_f_1002_2310)">
            <path d="M484 744C484 743.448 484.448 743 485 743C485.552 743 486 743.448 486 744V772H484V744Z" fill="#10B981"/>
            <path d="M488 772H480C478.895 772 478 772.895 478 774V820C478 821.105 478.895 822 480 822H488C489.105 822 490 821.105 490 820V774C490 772.895 489.105 772 488 772Z" fill="#10B981"/>
            <path d="M484 822H486V836C486 836.552 485.552 837 485 837C484.448 837 484 836.552 484 836V822Z" fill="#10B981"/>
        </g>
        <g opacity="0.11" filter="url(#filter29_f_1002_2310)">
            <path d="M696 742C696 741.448 696.448 741 697 741C697.552 741 698 741.448 698 742V769H696V742Z" fill="#EC4899"/>
            <path d="M700 769H692C690.895 769 690 769.895 690 771V815C690 816.105 690.895 817 692 817H700C701.105 817 702 816.105 702 815V771C702 769.895 701.105 769 700 769Z" fill="#EC4899"/>
            <path d="M696 817H698V832C698 832.552 697.552 833 697 833C696.448 833 696 832.552 696 832V817Z" fill="#EC4899"/>
        </g>
        <g opacity="0.1" filter="url(#filter30_f_1002_2310)">
            <path d="M908 706C908 705.448 908.448 705 909 705C909.552 705 910 705.448 910 706V731H908V706Z" fill="#10B981"/>
            <path d="M912 731H904C902.895 731 902 731.895 902 733V775C902 776.105 902.895 777 904 777H912C913.105 777 914 776.105 914 775V733C914 731.895 913.105 731 912 731Z" fill="#10B981"/>
            <path d="M908 777H910V791C910 791.552 909.552 792 909 792C908.448 792 908 791.552 908 791V777Z" fill="#10B981"/>
        </g>
        <g opacity="0.12" filter="url(#filter31_f_1002_2310)">
            <path d="M1120 725C1120 724.448 1120.45 724 1121 724C1121.55 724 1122 724.448 1122 725V752H1120V725Z" fill="#EC4899"/>
            <path d="M1124 752H1116C1114.9 752 1114 752.895 1114 754V800C1114 801.105 1114.9 802 1116 802H1124C1125.1 802 1126 801.105 1126 800V754C1126 752.895 1125.1 752 1124 752Z" fill="#EC4899"/>
            <path d="M1120 802H1122V818C1122 818.552 1121.55 819 1121 819C1120.45 819 1120 818.552 1120 818V802Z" fill="#EC4899"/>
        </g>
        <g opacity="0.11" filter="url(#filter32_f_1002_2310)">
            <path d="M1332 728C1332 727.448 1332.45 727 1333 727C1333.55 727 1334 727.448 1334 728V754H1332V728Z" fill="#10B981"/>
            <path d="M1336 754H1328C1326.9 754 1326 754.895 1326 756V800C1326 801.105 1326.9 802 1328 802H1336C1337.1 802 1338 801.105 1338 800V756C1338 754.895 1337.1 754 1336 754Z" fill="#10B981"/>
            <path d="M1332 802H1334V817C1334 817.552 1333.55 818 1333 818C1332.45 818 1332 817.552 1332 817V802Z" fill="#10B981"/>
        </g>
        <g opacity="0.1" filter="url(#filter33_f_1002_2310)">
            <path d="M1544 726C1544 725.448 1544.45 725 1545 725C1545.55 725 1546 725.448 1546 725V751H1544V726Z" fill="#EC4899"/>
            <path d="M1548 751H1540C1538.9 751 1538 751.895 1538 753V799C1538 800.105 1538.9 801 1540 801H1548C1549.1 801 1550 800.105 1550 799V753C1550 751.895 1549.1 751 1548 751Z" fill="#EC4899"/>
            <path d="M1544 801H1546V816C1546 816.552 1545.55 817 1545 817C1544.45 817 1544 816.552 1544 816V801Z" fill="#EC4899"/>
        </g>
        <g opacity="0.12" filter="url(#filter34_f_1002_2310)">
            <path d="M1756 728C1756 727.448 1756.45 727 1757 727C1757.55 727 1758 727.448 1758 728V753H1756V728Z" fill="#10B981"/>
            <path d="M1760 753H1752C1750.9 753 1750 753.895 1750 755V801C1750 802.105 1750.9 803 1752 803H1760C1761.1 803 1762 802.105 1762 801V755C1762 753.895 1761.1 753 1760 753Z" fill="#10B981"/>
            <path d="M1756 803H1758V818C1758 818.552 1757.55 819 1757 819C1756.45 819 1756 818.552 1756 818V803Z" fill="#10B981"/>
        </g>
    </g>
    <defs>
        <filter id="filter0_f_1002_2310" x="48" y="773" width="24" height="134" filterUnits="userSpaceOnUse" color-interpolation-filters="sRGB">
            <feFlood flood-opacity="0" result="BackgroundImageFix"/>
            <feBlend mode="normal" in="SourceGraphic" in2="BackgroundImageFix" result="shape"/>
            <feGaussianBlur stdDeviation="3" result="effect1_foregroundBlur_1002_2310"/>
        </filter>
        <filter id="filter1_f_1002_2310" x="154" y="753" width="24" height="164" filterUnits="userSpaceOnUse" color-interpolation-filters="sRGB">
            <feFlood flood-opacity="0" result="BackgroundImageFix"/>
            <feBlend mode="normal" in="SourceGraphic" in2="BackgroundImageFix" result="shape"/>
            <feGaussianBlur stdDeviation="3" result="effect1_foregroundBlur_1002_2310"/>
        </filter>
        <filter id="filter2_f_1002_2310" x="207" y="783" width="24" height="119" filterUnits="userSpaceOnUse" color-interpolation-filters="sRGB">
            <feFlood flood-opacity="0" result="BackgroundImageFix"/>
            <feBlend mode="normal" in="SourceGraphic" in2="BackgroundImageFix" result="shape"/>
            <feGaussianBlur stdDeviation="3" result="effect1_foregroundBlur_1002_2310"/>
        </filter>
        <filter id="filter3_f_1002_2310" x="313" y="707" width="24" height="149" filterUnits="userSpaceOnUse" color-interpolation-filters="sRGB">
            <feFlood flood-opacity="0" result="BackgroundImageFix"/>
            <feBlend mode="normal" in="SourceGraphic" in2="BackgroundImageFix" result="shape"/>
            <feGaussianBlur stdDeviation="3" result="effect1_foregroundBlur_1002_2310"/>
        </filter>
        <filter id="filter4_f_1002_2310" x="366" y="687" width="24" height="174" filterUnits="userSpaceOnUse" color-interpolation-filters="sRGB">
            <feFlood flood-opacity="0" result="BackgroundImageFix"/>
            <feBlend mode="normal" in="SourceGraphic" in2="BackgroundImageFix" result="shape"/>
            <feGaussianBlur stdDeviation="3" result="effect1_foregroundBlur_1002_2310"/>
        </filter>
        <filter id="filter5_f_1002_2310" x="419" y="717" width="24" height="134" filterUnits="userSpaceOnUse" color-interpolation-filters="sRGB">
            <feFlood flood-opacity="0" result="BackgroundImageFix"/>
            <feBlend mode="normal" in="SourceGraphic" in2="BackgroundImageFix" result="shape"/>
            <feGaussianBlur stdDeviation="3" result="effect1_foregroundBlur_1002_2310"/>
        </filter>
        <filter id="filter6_f_1002_2310" x="525" y="677" width="24" height="179" filterUnits="userSpaceOnUse" color-interpolation-filters="sRGB">
            <feFlood flood-opacity="0" result="BackgroundImageFix"/>
            <feBlend mode="normal" in="SourceGraphic" in2="BackgroundImageFix" result="shape"/>
            <feGaussianBlur stdDeviation="3" result="effect1_foregroundBlur_1002_2310"/>
        </filter>
        <filter id="filter7_f_1002_2310" x="578" y="712" width="24" height="134" filterUnits="userSpaceOnUse" color-interpolation-filters="sRGB">
            <feFlood flood-opacity="0" result="BackgroundImageFix"/>
            <feBlend mode="normal" in="SourceGraphic" in2="BackgroundImageFix" result="shape"/>
            <feGaussianBlur stdDeviation="3" result="effect1_foregroundBlur_1002_2310"/>
        </filter>
        <filter id="filter8_f_1002_2310" x="631" y="657" width="24" height="204" filterUnits="userSpaceOnUse" color-interpolation-filters="sRGB">
            <feFlood flood-opacity="0" result="BackgroundImageFix"/>
            <feBlend mode="normal" in="SourceGraphic" in2="BackgroundImageFix" result="shape"/>
            <feGaussianBlur stdDeviation="3" result="effect1_foregroundBlur_1002_2310"/>
        </filter>
        <filter id="filter9_f_1002_2310" x="737" y="657" width="24" height="154" filterUnits="userSpaceOnUse" color-interpolation-filters="sRGB">
            <feFlood flood-opacity="0" result="BackgroundImageFix"/>
            <feBlend mode="normal" in="SourceGraphic" in2="BackgroundImageFix" result="shape"/>
            <feGaussianBlur stdDeviation="3" result="effect1_foregroundBlur_1002_2310"/>
        </filter>
        <filter id="filter10_f_1002_2310" x="790" y="597" width="24" height="229" filterUnits="userSpaceOnUse" color-interpolation-filters="sRGB">
            <feFlood flood-opacity="0" result="BackgroundImageFix"/>
            <feBlend mode="normal" in="SourceGraphic" in2="BackgroundImageFix" result="shape"/>
            <feGaussianBlur stdDeviation="3" result="effect1_foregroundBlur_1002_2310"/>
        </filter>
        <filter id="filter11_f_1002_2310" x="843" y="667" width="24" height="149" filterUnits="userSpaceOnUse" color-interpolation-filters="sRGB">
            <feFlood flood-opacity="0" result="BackgroundImageFix"/>
            <feBlend mode="normal" in="SourceGraphic" in2="BackgroundImageFix" result="shape"/>
            <feGaussianBlur stdDeviation="3" result="effect1_foregroundBlur_1002_2310"/>
        </filter>
        <filter id="filter12_f_1002_2310" x="949" y="577" width="24" height="254" filterUnits="userSpaceOnUse" color-interpolation-filters="sRGB">
            <feFlood flood-opacity="0" result="BackgroundImageFix"/>
            <feBlend mode="normal" in="SourceGraphic" in2="BackgroundImageFix" result="shape"/>
            <feGaussianBlur stdDeviation="3" result="effect1_foregroundBlur_1002_2310"/>
        </filter>
        <filter id="filter13_f_1002_2310" x="1002" y="711" width="24" height="174" filterUnits="userSpaceOnUse" color-interpolation-filters="sRGB">
            <feFlood flood-opacity="0" result="BackgroundImageFix"/>
            <feBlend mode="normal" in="SourceGraphic" in2="BackgroundImageFix" result="shape"/>
            <feGaussianBlur stdDeviation="3" result="effect1_foregroundBlur_1002_2310"/>
        </filter>
        <filter id="filter14_f_1002_2310" x="1055" y="651" width="24" height="189" filterUnits="userSpaceOnUse" color-interpolation-filters="sRGB">
            <feFlood flood-opacity="0" result="BackgroundImageFix"/>
            <feBlend mode="normal" in="SourceGraphic" in2="BackgroundImageFix" result="shape"/>
            <feGaussianBlur stdDeviation="3" result="effect1_foregroundBlur_1002_2310"/>
        </filter>
        <filter id="filter15_f_1002_2310" x="1161" y="686" width="24" height="149" filterUnits="userSpaceOnUse" color-interpolation-filters="sRGB">
            <feFlood flood-opacity="0" result="BackgroundImageFix"/>
            <feBlend mode="normal" in="SourceGraphic" in2="BackgroundImageFix" result="shape"/>
            <feGaussianBlur stdDeviation="3" result="effect1_foregroundBlur_1002_2310"/>
        </filter>
        <filter id="filter16_f_1002_2310" x="1214" y="631" width="24" height="219" filterUnits="userSpaceOnUse" color-interpolation-filters="sRGB">
            <feFlood flood-opacity="0" result="BackgroundImageFix"/>
            <feBlend mode="normal" in="SourceGraphic" in2="BackgroundImageFix" result="shape"/>
            <feGaussianBlur stdDeviation="3" result="effect1_foregroundBlur_1002_2310"/>
        </filter>
        <filter id="filter17_f_1002_2310" x="1267" y="691" width="24" height="147" filterUnits="userSpaceOnUse" color-interpolation-filters="sRGB">
            <feFlood flood-opacity="0" result="BackgroundImageFix"/>
            <feBlend mode="normal" in="SourceGraphic" in2="BackgroundImageFix" result="shape"/>
            <feGaussianBlur stdDeviation="3" result="effect1_foregroundBlur_1002_2310"/>
        </filter>
        <filter id="filter18_f_1002_2310" x="1373" y="611" width="24" height="242" filterUnits="userSpaceOnUse" color-interpolation-filters="sRGB">
            <feFlood flood-opacity="0" result="BackgroundImageFix"/>
            <feBlend mode="normal" in="SourceGraphic" in2="BackgroundImageFix" result="shape"/>
            <feGaussianBlur stdDeviation="3" result="effect1_foregroundBlur_1002_2310"/>
        </filter>
        <filter id="filter19_f_1002_2310" x="1426" y="696" width="24" height="144" filterUnits="userSpaceOnUse" color-interpolation-filters="sRGB">
            <feFlood flood-opacity="0" result="BackgroundImageFix"/>
            <feBlend mode="normal" in="SourceGraphic" in2="BackgroundImageFix" result="shape"/>
            <feGaussianBlur stdDeviation="3" result="effect1_foregroundBlur_1002_2310"/>
        </filter>
        <filter id="filter20_f_1002_2310" x="1479" y="666" width="24" height="177" filterUnits="userSpaceOnUse" color-interpolation-filters="sRGB">
            <feFlood flood-opacity="0" result="BackgroundImageFix"/>
            <feBlend mode="normal" in="SourceGraphic" in2="BackgroundImageFix" result="shape"/>
            <feGaussianBlur stdDeviation="3" result="effect1_foregroundBlur_1002_2310"/>
        </filter>
        <filter id="filter21_f_1002_2310" x="1585" y="681" width="24" height="156" filterUnits="userSpaceOnUse" color-interpolation-filters="sRGB">
            <feFlood flood-opacity="0" result="BackgroundImageFix"/>
            <feBlend mode="normal" in="SourceGraphic" in2="BackgroundImageFix" result="shape"/>
            <feGaussianBlur stdDeviation="3" result="effect1_foregroundBlur_1002_2310"/>
        </filter>
        <filter id="filter22_f_1002_2310" x="1638" y="646" width="24" height="199" filterUnits="userSpaceOnUse" color-interpolation-filters="sRGB">
            <feFlood flood-opacity="0" result="BackgroundImageFix"/>
            <feBlend mode="normal" in="SourceGraphic" in2="BackgroundImageFix" result="shape"/>
            <feGaussianBlur stdDeviation="3" result="effect1_foregroundBlur_1002_2310"/>
        </filter>
        <filter id="filter23_f_1002_2310" x="1691" y="691" width="24" height="147" filterUnits="userSpaceOnUse" color-interpolation-filters="sRGB">
            <feFlood flood-opacity="0" result="BackgroundImageFix"/>
            <feBlend mode="normal" in="SourceGraphic" in2="BackgroundImageFix" result="shape"/>
            <feGaussianBlur stdDeviation="3" result="effect1_foregroundBlur_1002_2310"/>
        </filter>
        <filter id="filter24_f_1002_2310" x="1797" y="626" width="24" height="221" filterUnits="userSpaceOnUse" color-interpolation-filters="sRGB">
            <feFlood flood-opacity="0" result="BackgroundImageFix"/>
            <feBlend mode="normal" in="SourceGraphic" in2="BackgroundImageFix" result="shape"/>
            <feGaussianBlur stdDeviation="3" result="effect1_foregroundBlur_1002_2310"/>
        </filter>
        <filter id="filter25_f_1002_2310" x="1850" y="701" width="24" height="134" filterUnits="userSpaceOnUse" color-interpolation-filters="sRGB">
            <feFlood flood-opacity="0" result="BackgroundImageFix"/>
            <feBlend mode="normal" in="SourceGraphic" in2="BackgroundImageFix" result="shape"/>
            <feGaussianBlur stdDeviation="3" result="effect1_foregroundBlur_1002_2310"/>
        </filter>
        <filter id="filter26_f_1002_2310" x="101" y="793" width="24" height="102" filterUnits="userSpaceOnUse" color-interpolation-filters="sRGB">
            <feFlood flood-opacity="0" result="BackgroundImageFix"/>
            <feBlend mode="normal" in="SourceGraphic" in2="BackgroundImageFix" result="shape"/>
            <feGaussianBlur stdDeviation="3" result="effect1_foregroundBlur_1002_2310"/>
        </filter>
        <filter id="filter27_f_1002_2310" x="260" y="788" width="24" height="109" filterUnits="userSpaceOnUse" color-interpolation-filters="sRGB">
            <feFlood flood-opacity="0" result="BackgroundImageFix"/>
            <feBlend mode="normal" in="SourceGraphic" in2="BackgroundImageFix" result="shape"/>
            <feGaussianBlur stdDeviation="3" result="effect1_foregroundBlur_1002_2310"/>
        </filter>
        <filter id="filter28_f_1002_2310" x="472" y="737" width="24" height="106" filterUnits="userSpaceOnUse" color-interpolation-filters="sRGB">
            <feFlood flood-opacity="0" result="BackgroundImageFix"/>
            <feBlend mode="normal" in="SourceGraphic" in2="BackgroundImageFix" result="shape"/>
            <feGaussianBlur stdDeviation="3" result="effect1_foregroundBlur_1002_2310"/>
        </filter>
        <filter id="filter29_f_1002_2310" x="684" y="735" width="24" height="104" filterUnits="userSpaceOnUse" color-interpolation-filters="sRGB">
            <feFlood flood-opacity="0" result="BackgroundImageFix"/>
            <feBlend mode="normal" in="SourceGraphic" in2="BackgroundImageFix" result="shape"/>
            <feGaussianBlur stdDeviation="3" result="effect1_foregroundBlur_1002_2310"/>
        </filter>
        <filter id="filter30_f_1002_2310" x="896" y="699" width="24" height="99" filterUnits="userSpaceOnUse" color-interpolation-filters="sRGB">
            <feFlood flood-opacity="0" result="BackgroundImageFix"/>
            <feBlend mode="normal" in="SourceGraphic" in2="BackgroundImageFix" result="shape"/>
            <feGaussianBlur stdDeviation="3" result="effect1_foregroundBlur_1002_2310"/>
        </filter>
        <filter id="filter31_f_1002_2310" x="1108" y="718" width="24" height="107" filterUnits="userSpaceOnUse" color-interpolation-filters="sRGB">
            <feFlood flood-opacity="0" result="BackgroundImageFix"/>
            <feBlend mode="normal" in="SourceGraphic" in2="BackgroundImageFix" result="shape"/>
            <feGaussianBlur stdDeviation="3" result="effect1_foregroundBlur_1002_2310"/>
        </filter>
        <filter id="filter32_f_1002_2310" x="1320" y="721" width="24" height="103" filterUnits="userSpaceOnUse" color-interpolation-filters="sRGB">
            <feFlood flood-opacity="0" result="BackgroundImageFix"/>
            <feBlend mode="normal" in="SourceGraphic" in2="BackgroundImageFix" result="shape"/>
            <feGaussianBlur stdDeviation="3" result="effect1_foregroundBlur_1002_2310"/>
        </filter>
        <filter id="filter33_f_1002_2310" x="1532" y="719" width="24" height="104" filterUnits="userSpaceOnUse" color-interpolation-filters="sRGB">
            <feFlood flood-opacity="0" result="BackgroundImageFix"/>
            <feBlend mode="normal" in="SourceGraphic" in2="BackgroundImageFix" result="shape"/>
            <feGaussianBlur stdDeviation="3" result="effect1_foregroundBlur_1002_2310"/>
        </filter>
        <filter id="filter34_f_1002_2310" x="1744" y="721" width="24" height="104" filterUnits="userSpaceOnUse" color-interpolation-filters="sRGB">
            <feFlood flood-opacity="0" result="BackgroundImageFix"/>
            <feBlend mode="normal" in="SourceGraphic" in2="BackgroundImageFix" result="shape"/>
            <feGaussianBlur stdDeviation="3" result="effect1_foregroundBlur_1002_2310"/>
        </filter>
        <linearGradient id="paint0_linear_1002_2310" x1="0" y1="0" x2="1920" y2="1080" gradientUnits="userSpaceOnUse">
            <stop stop-color="#37549A"/>
            <stop offset="0.33" stop-color="#1E293B"/>
            <stop offset="0.66" stop-color="#312E81"/>
            <stop offset="1" stop-color="#581C87"/>
        </linearGradient>
        <clipPath id="clip0_1002_2310">
            <rect width="1920" height="1080" fill="white"/>
        </clipPath>
    </defs>
</svg>
